<svg width="277" height="252" viewBox="0 0 277 252" fill="none" xmlns="http://www.w3.org/2000/svg">
<mask id="mask0_1519_8343" style="mask-type:luminance" maskUnits="userSpaceOnUse" x="38" y="0" width="201" height="130">
<path d="M38.4023 0H238.402V130H38.4023V0Z" fill="white"/>
</mask>
<g mask="url(#mask0_1519_8343)">
<path d="M225.402 95.0835C225.402 35.0835 173.402 20.0835 173.402 20.0835L157.402 50.0835V10.0835C157.402 4.0835 153.402 0.0834961 147.402 0.0834961H127.402C121.402 0.0834961 117.402 4.0835 117.402 10.0835V50.0835L102.402 20.0835C102.402 20.0835 50.4023 35.0835 50.4023 95.0835C50.4023 95.0835 38.4023 97.0835 38.4023 120.083C38.4023 120.083 68.4023 130.083 138.402 130.083C208.402 130.083 238.402 120.083 238.402 120.083C237.402 97.0835 225.402 95.0835 225.402 95.0835Z" fill="#FDC500"/>
<mask id="mask1_1519_8343" style="mask-type:luminance" maskUnits="userSpaceOnUse" x="60" y="20" width="167" height="103">
<path d="M60 20H227V123H60V20Z" fill="white"/>
</mask>
<g mask="url(#mask1_1519_8343)">
<path d="M225.484 123L178.046 6.33422L161.498 70.7441L142.949 33.2091L123.408 98.0779L92.4637 48.7909L73.1149 85.5979L53.2041 36.1748L54.7164 35.8805L73.3113 82.034L92.3357 45.8505L122.878 94.4982L142.579 29.0945L161.014 66.3984L177.699 1.45996L227.001 122.702L225.484 123Z" fill="url(#paint0_linear_1519_8343)"/>
</g>
</g>
<path d="M89.0801 251.384L87.3092 242.717H80.0384L78.3092 251.384H75.1426L81.5384 220.155H85.8926L92.2467 251.384H89.0801ZM83.8092 224.321H83.5384L80.4967 239.905H86.8509L83.8092 224.321Z" fill="#003049"/>
<path d="M111.577 251.384L103.286 228.134H103.098V251.384H100.057V220.155H103.286L111.452 242.905H111.682V220.155H114.682V251.384H111.577Z" fill="#003049"/>
<path d="M136.379 251.384L134.608 242.717H127.337L125.608 251.384H122.441L128.837 220.155H133.191L139.546 251.384H136.379ZM131.108 224.321H130.837L127.796 239.905H134.15L131.108 224.321Z" fill="#003049"/>
<path d="M147.355 251.384V220.155H150.543V248.426H158.335V251.384H147.355Z" fill="#003049"/>
<path d="M165.883 251.384V220.155H169.008V251.384H165.883ZM165.924 215.071V211.655H168.82V215.071H165.924Z" fill="#003049"/>
<path d="M177.23 251.384V248.655L187.293 223.051H177.543V220.155H190.668V222.884L180.626 248.488H190.835V251.384H177.23Z" fill="#003049"/>
<path d="M199.064 251.384V220.155H202.189V251.384H199.064ZM199.106 215.071V211.655H202.002V215.071H199.106Z" fill="#003049"/>
<path d="M0 201.751V160.48H7.1875V201.751H0ZM0.583333 155.084V149.271H6.52083V155.084H0.583333Z" fill="#003049"/>
<path d="M36.6953 188.98C36.6953 192.178 36.4089 194.698 35.8411 196.542C35.2839 198.375 34.4557 199.719 33.362 200.563C32.263 201.396 30.8307 201.907 29.0703 202.105L27.0286 213.084H21.2161V212.792L24.5703 202.167C22.013 202.053 19.7786 201.74 17.862 201.209V195.271C20.7786 195.553 23.0339 195.688 24.6328 195.688C25.7578 195.688 26.6172 195.62 27.2161 195.48C27.8099 195.344 28.2891 195.073 28.6536 194.667C29.2214 193.99 29.5078 192.511 29.5078 190.23C29.5078 188.48 29.4297 187.245 29.2786 186.521C29.138 185.803 28.8464 185.271 28.4036 184.938C27.9714 184.594 27.1797 184.303 26.0286 184.063L21.2161 183.042C19.7005 182.724 18.6589 181.683 18.0911 179.917C17.5339 178.157 17.2578 175.599 17.2578 172.25C17.2578 169 17.6536 166.49 18.4453 164.709C19.2474 162.933 20.4036 161.704 21.9036 161.021C23.4036 160.344 25.3307 160 27.6953 160C29.4974 160 31.1328 160.125 32.5911 160.375C34.0495 160.615 34.9766 160.808 35.3828 160.959V166.959C34.9766 166.875 34.2422 166.787 33.1745 166.688C32.1172 166.594 30.9922 166.542 29.7995 166.542C28.5182 166.542 27.5286 166.636 26.8203 166.813C26.1224 166.995 25.6172 167.287 25.2995 167.688C24.9766 168.094 24.7682 168.615 24.6745 169.25C24.5755 169.891 24.5286 170.808 24.5286 172C24.5286 173.407 24.5755 174.417 24.6745 175.042C24.7682 175.657 24.9766 176.099 25.2995 176.375C25.6172 176.657 26.138 176.875 26.862 177.042L31.0078 178C32.2422 178.24 33.2682 178.662 34.0911 179.271C34.9089 179.87 35.5547 180.907 36.0286 182.375C36.4714 183.823 36.6953 186.021 36.6953 188.98Z" fill="#003049"/>
<path d="M75.6077 201.75L70.8161 184.292H68.7744V201.75H61.5244V160.479H68.7744V177.396H70.8161L75.7327 160.479H83.1077L76.4619 180.396L83.1702 201.75H75.6077Z" fill="#003049"/>
<path d="M107.047 201.75L105.651 192.688H98.5882L97.2132 201.75H90.0674L96.8382 160.479H107.526L114.359 201.75H107.047ZM102.297 167.917H101.942L99.2965 186.334H104.942L102.297 167.917Z" fill="#003049"/>
<path d="M122.268 201.75V195.625L133.247 167.021H122.559V160.479H140.976V166.542L129.955 195.209H141.038V201.75H122.268Z" fill="#003049"/>
<path d="M166.057 201.75L164.661 192.688H157.599L156.224 201.75H149.078L155.849 160.479H166.536L173.37 201.75H166.057ZM161.307 167.917H160.953L158.307 186.334H163.953L161.307 167.917Z" fill="#003049"/>
<path d="M182.424 201.75V160.479H189.674V195.084H197.945V201.75H182.424Z" fill="#003049"/>
<path d="M222.008 201.75L220.613 192.688H213.55L212.175 201.75H205.029L211.8 160.479H222.488L229.321 201.75H222.008ZM217.258 167.917H216.904L214.258 186.334H219.904L217.258 167.917Z" fill="#003049"/>
<path d="M252.521 201.75L249.042 187.063H245.625V201.75H238.375V160.479H249.708C252.385 160.479 254.396 160.979 255.729 161.979C257.073 162.979 257.964 164.407 258.396 166.25C258.839 168.084 259.063 170.584 259.063 173.75C259.063 176.865 258.839 179.349 258.396 181.209C257.964 183.073 257.026 184.479 255.583 185.438L259.958 201.75H252.521ZM248.5 180.688C249.542 180.688 250.292 180.521 250.75 180.188C251.208 179.854 251.505 179.229 251.646 178.313C251.797 177.386 251.875 175.896 251.875 173.854C251.875 171.813 251.797 170.334 251.646 169.417C251.505 168.5 251.208 167.875 250.75 167.542C250.292 167.198 249.542 167.021 248.5 167.021H245.625V180.688H248.5Z" fill="#003049"/>
<path d="M269.625 201.75V160.479H276.813V201.75H269.625Z" fill="#003049"/>
<defs>
<linearGradient id="paint0_linear_1519_8343" x1="140.102" y1="1.45996" x2="140.102" y2="123" gradientUnits="userSpaceOnUse">
<stop stop-color="#F0F4F8"/>
<stop offset="1" stop-color="#D9E2EC"/>
</linearGradient>
</defs>
</svg>
